<svg xmlns="http://www.w3.org/2000/svg" width="119.97243181142147" height="148.63881115148024" viewBox="0.5836722699241721,0.2883860002140029,0.0011997243181142148,0.0014863881115148025"><polyline fill="#00a550" fill-opacity="0.5" points="0.5842247852429169,0.2898037766366195 0.5842329182991726,0.28980863791027817 0.5842374608476644,0.2898106368370609 0.5842439051371826,0.28981259160007317 0.5842508533978379,0.28981386751273724 0.5842570895290258,0.28981420693794546 0.58426313232059,0.2898137198820567 0.5842711608375949,0.2898123419358305 0.5842785417727027,0.28980971251050835 0.584284259540427,0.2898069051424041 0.5843013775807928,0.28979460507490085 0.5843096566850645,0.28979036564058214 0.5843218345388299,0.2897867234155387 0.5843303588275234,0.2897857381898391 0.5843396586434615,0.28978626058231916 0.5843502231558382,0.2897869994281339 0.58435784283249,0.2897868912014937 0.5843702325907223,0.2897854638456674 0.584386906851538,0.2897819141236346 0.5844117028652676,0.2897768554224187 0.5844440046256055,0.28977029590481845 0.584453285908874,0.2897679714451466 0.5844637075254255,0.2897643314091841 0.5844794436546574,0.289757376660931 0.5845009935352614,0.28974763014066535 0.584528136079896,0.2897354727316411 0.5845372796311845,0.28973058815085706 0.5845440486668394,0.28972545908475916 0.5845494277868634,0.2897198495395432 0.5845840797142631,0.2896691043065049 0.5845952876343402,0.2896491781180388 0.5846063890620894,0.28961692639026126 0.5846148553038097,0.28960359624201804 0.5846238022913555,0.28959664311236827 0.584661717136262,0.2895754799623249 0.5846741387757972,0.28957332007452263 0.5847235670015987,0.2895703347765236 0.5847326646975682,0.2895687227156729 0.5847421011264247,0.2895643343280582 0.5847503454623855,0.2895570800553355 0.5847973886703347,0.28951008626169605 0.5848061493321152,0.2894965602606904 0.5848102186500113,0.28948370726310924 0.5848110497928735,0.2894707131217319 0.5848095034698173,0.28945878282094695 0.5848014573728528,0.28942762181763904 0.5847907217636341,0.28938643016554244 0.5847890460604213,0.28936995671441046 0.5847887215994394,0.2893491765036224 0.5847919717108674,0.2893276811415292 0.58479431045221,0.28931358994582507 0.5847955830538933,0.2892972899714883 0.5847933069942705,0.2892275430527537 0.5847936834476161,0.28921940383307215 0.5847950127085467,0.28920949266732454 0.5847976532716624,0.2891978500423928 0.5848018435555424,0.28918644624207146 0.5848069442423572,0.2891763559969883 0.5848135350452914,0.2891655492875122 0.5848190529646196,0.28915468287475504 0.5848230211631836,0.28914578674525393 0.5848255047171066,0.2891364577648123 0.5848278108959364,0.2891264794880652 0.5848297456394105,0.2891099970496148 0.5848307517565368,0.28909364467183174 0.5848325751942414,0.2890749480948157 0.5848358910567556,0.28906085668620185 0.5848391316881574,0.28905028859855897 0.5848426107381385,0.28904210872793096 0.5848638529878156,0.2890013895589522 0.5848687520667559,0.28898995593069843 0.5848707545713902,0.2889822688420018 0.5848719942422863,0.2889711711035746 0.584871660403418,0.28896227873896346 0.5848706113088125,0.28895386401785 0.5848682215405883,0.28894501296640557 0.5848645530637181,0.28893581102006644 0.5848596328893078,0.28892690760148815 0.5848533688191734,0.28891877301735264 0.5848470181332883,0.28891216825316623 0.5848399088837906,0.2889068358935219 0.5848134281247408,0.2888902789533979 0.5847876540133835,0.28887421952970443 0.5847777471899436,0.28886930750630363 0.5847678167903849,0.28886586616815296 0.5847539842384825,0.2888629079527142 0.584733746324424,0.2888588913749588 0.584723716774362,0.28885607706633354 0.5847157733868671,0.2888527851164359 0.584707509908544,0.2888477985956507 0.5846995369684291,0.28884133494219333 0.5846899945543229,0.28883289771533405 0.5846804521402169,0.28882266933551737 0.5846725213480112,0.28881151552828827 0.5846680381674173,0.28880372953607897 0.5846644083306463,0.28879604844560886 0.5846613745403231,0.2887877106000705 0.5846585256104946,0.28877760247214795 0.5846560464016555,0.2887617446918324 0.5846557566657373,0.28875212927208554 0.5846564162280322,0.2887329836408355 0.5846560974868968,0.28872681369674724 0.5846545877998378,0.2887167426014474 0.5846509140642879,0.28870507852711547 0.5846452153973845,0.28869376944810754 0.5846370133354006,0.28868281860124734 0.5846293114895702,0.2886754849264264 0.5846141429941192,0.2886654313747302 0.5846059018065362,0.2886588378873096 0.58459849508398,0.2886492591531401 0.5845727670473926,0.2885979991320909 0.584564534794305,0.28858131913230267 0.5845594962256135,0.2885701693521099 0.5845572409693682,0.2885624377807524 0.584555671265107,0.2885523480770249 0.5845536180420268,0.2885424379053352 0.5845515495032898,0.2885363496754242 0.5845490409835723,0.28853683063918917 0.5845466676878656,0.28853158326511646 0.5845431855468485,0.2885282464456818 0.5845390477547389,0.28852604401785087 0.5843932402780243,0.2884666263546015 0.5842817948790228,0.2884211498013554 0.5842811076485258,0.28842296368302006 0.5841890057338361,0.2883864499761186 0.5841844357227277,0.2883860002140029 0.5841795080837509,0.28838626690772334 0.5841745999913134,0.28838781527443197 0.5841455017038535,0.2884042261502805 0.5841126892696609,0.2884224437384092 0.584107808972249,0.28842464465172435 0.5840773269161381,0.2884356889460543 0.5840747816774198,0.28843628545476685 0.584072117229412,0.28843637447334747 0.5840675093088258,0.28843559615796943 0.5840272809366482,0.2884265650170859 0.5839642516295493,0.28846796238114925 0.5839141008147832,0.2885021983188786 0.5838752623037777,0.288528952229965 0.5838653916501331,0.28853561547698386 0.5838609091319062,0.2885392996427922 0.5838641381308792,0.2885430992305248 0.5838614608438248,0.2885449303955921 0.5838593199985734,0.28854732875641864 0.5838558129356113,0.2885503183862234 0.583853140337676,0.2885540841790627 0.5838478547464503,0.2885581528842778 0.5838461646560702,0.2885595734994872 0.5838453944033283,0.2885615244072338 0.5839326931476561,0.288632528449211 0.5839442524590773,0.28864183995877096 0.5839799785994947,0.28869183949920135 0.5839756282670285,0.28869494629876696 0.5839647265582344,0.2887032076709573 0.5839612158253925,0.2887093196638557 0.5839589627312908,0.2887105579278035 0.5838997632439831,0.28869533069068676 0.5838586848469575,0.28873902492604725 0.5838428885823865,0.2887915457099147 0.5838367277676197,0.2888018353296003 0.5838410405157819,0.28881967747924964 0.583845616915523,0.2888223758721004 0.5838603261048758,0.2888608973610024 0.5838708437736411,0.2888684867397012 0.5839015537913428,0.2888780131281785 0.5839114549751967,0.2888774625602403 0.5839213561590506,0.2888747626051562 0.5839274562944692,0.28888943661653516 0.583919966570879,0.28889551307972616 0.5839158947736923,0.2889042031049669 0.5839151421552714,0.2889165679191725 0.5839179284528533,0.2889288788617614 0.5839087190961127,0.2889852639740043 0.5838971684196912,0.28902801285526625 0.583843524494632,0.2890126576376961 0.5838264480191424,0.2890708295865708 0.5838277595765659,0.2890742815589169 0.5838347931798881,0.2890782111747201 0.5838629439861354,0.28913763369425743 0.5838661164416721,0.28914076857449866 0.5838939351318357,0.2891571138250533 0.5839004749638148,0.2891586521130404 0.5839143866659944,0.2891590735366312 0.5839212404152079,0.289158901390162 0.5839221458503906,0.28918040931680644 0.5839167564483942,0.28923488568239564 0.5839147709142268,0.2892429216014835 0.5839127071945248,0.2892482464334385 0.5839094288382742,0.2892559235644958 0.5839076084861426,0.28926172493001445 0.583907384265936,0.2892692162973988 0.5839089551307967,0.2892778837845853 0.5839120757164218,0.2892842227529072 0.5839168267715522,0.2892902136585981 0.5839295475326312,0.28929938930581034 0.5839263788252967,0.2893030530096073 0.5839236176893143,0.2893032157377466 0.5839133270457675,0.28931930349179735 0.5839084813848944,0.2893228202773989 0.5838988479227925,0.2893335439031073 0.5838884674970912,0.28934233354944344 0.5838833068043843,0.28934606111956457 0.5838796191775766,0.28934993391751496 0.5838752084573591,0.28935517187393495 0.5838729498055031,0.28936230426734755 0.5838715610267218,0.2893710761287739 0.583862097933278,0.2893783504662867 0.5838281714365192,0.2893835850461202 0.5838184279996474,0.28938259070178984 0.5838120401797409,0.28938060201318383 0.5838026933542031,0.2893809234500009 0.5838000479461465,0.2893884921911338 0.5837994021553016,0.2893893450158885 0.5837996464138024,0.28939170742866205 0.5838120529951077,0.2894041940049034 0.5837939757507626,0.28942271893973165 0.5837652129897741,0.2894717099969458 0.5837448480656479,0.28950632842882884 0.5837276074221468,0.2895167620334984 0.5837236735155916,0.289520851887743 0.5837232562830782,0.28953498726231763 0.583723017864499,0.2895667508206712 0.583722794347081,0.28956887038213475 0.5837219300797316,0.28957066156080896 0.5837169981502679,0.28957594769008527 0.5837049543754556,0.2895887551589569 0.5837039076576048,0.28959081555302507 0.5837036619658909,0.289592727220188 0.5837035462303953,0.2896087266186078 0.5836983612166671,0.28960839733223387 0.5836952325631836,0.2896079784868127 0.5836934158022523,0.28960731991387695 0.5836801973419272,0.2896001181140674 0.5836770531969153,0.2896060439339243 0.5836737898426139,0.2896105965164055 0.5836725083427512,0.28961468637770116 0.5836722699241721,0.28961928374049184 0.5836738196449363,0.2896242393396765 0.5836783197956168,0.28963173244542184 0.5836793628769004,0.28963468789371277 0.5836804059581839,0.28963937481721364 0.5836799589233481,0.28964358409280766 0.5836757269935688,0.2896603614923462 0.5836779919700705,0.2897103951913217 0.5836801377372822,0.28971529109280847 0.5836830285625538,0.28971850029677176 0.5836865154342732,0.28972087361508414 0.5836954561309896,0.2897239484805294 0.5837379501728449,0.2897324943584773 0.5838073071205063,0.28973759138166466 0.5838244146388275,0.28974040741723334 0.5838165991029403,0.2897418639854429 0.5838078298927365,0.28974570879959255 0.5838012064497446,0.28975074773721404 0.5837964903553856,0.28975626432450685 0.5837914542555374,0.28976638944335503 0.5837885971736705,0.2897755041695289 0.5837874129629399,0.2897856135833067 0.5837857597972158,0.2897955629480676 0.5837814997914512,0.28980758046152016 0.5837497270631121,0.2898640294453677 0.5837556875275896,0.2898676118224228 0.5837677872704788,0.2898716718500231 0.5837756252812668,0.2898723883255177 0.5837850279139801,0.28987191067519413 0.5837926498579308,0.2898698209550664 0.583803136550121,0.28986519371792524 0.5838084395008607,0.28986138744250883 0.5838175878825111,0.28985064777664976 0.5838217294740007,0.28984277401315117 0.5838284441728333,0.28983008261876886 0.583837572281622,0.2898203034307161 0.5838477154291164,0.289814596902974 0.5838626909613007,0.28980939329598193 0.5838759758112784,0.28980531494233647 0.5838863913859855,0.2898010988458436 0.5838938003834719,0.28979720432547 0.5839018584745581,0.28979180353364675 0.5839095267107939,0.28978589785943853 0.5839166190375017,0.2897789824201513 0.5839246959823594,0.28976944210423433 0.5839316252800598,0.2897611791360179 0.5839465416001604,0.2897471843778777 0.583956085793905,0.2897400868094607 0.5839695638942048,0.28973161600078406 0.5839906192349718,0.28972154059120875 0.5840795635734695,0.28968020338891254 0.5840871372490768,0.2896783483724656 0.5840985813408737,0.2896783185194271 0.5841068663864974,0.28968067690959554 0.5841155090599899,0.2896848861882988 0.5841219463616256,0.2896903194421902 0.5841276088028793,0.2896977229979379 0.5841351189881209,0.28971235099402576 0.5841426887780075,0.28972321750801266 0.5841487088471298,0.28973026283135095 0.5842026510506514,0.2897832221983667 0.584217486651688,0.2897974824142769 0.5842247852429169,0.2898037766366195"/></svg>